<?xml version="1.0" encoding="UTF-8"?>
<svg xmlns="http://www.w3.org/2000/svg" xmlns:xlink="http://www.w3.org/1999/xlink" viewBox="0 0 48 48" width="48px" height="48px">
<g id="surface30864595">
<rect width="100" height="100" fill="#FFD600"/>
<path style=" stroke:none;fill-rule:nonzero;fill:#000;fill-opacity:1;" d="M 30.09375 33.839844 C 30.851562 35.078125 31.679688 36.261719 33.433594 36.261719 C 34.90625 36.261719 35.675781 35.53125 35.675781 34.519531 C 35.675781 33.308594 34.878906 32.878906 33.257812 32.171875 L 32.371094 31.792969 C 29.808594 30.707031 28.105469 29.347656 28.105469 26.46875 C 28.105469 23.820312 30.132812 21.800781 33.304688 21.800781 C 35.5625 21.800781 37.1875 22.582031 38.355469 24.632812 L 35.59375 26.398438 C 34.984375 25.3125 34.324219 24.882812 33.304688 24.882812 C 32.265625 24.882812 31.605469 25.542969 31.605469 26.398438 C 31.605469 27.460938 32.265625 27.886719 33.789062 28.546875 L 34.675781 28.921875 C 37.695312 30.210938 39.398438 31.523438 39.398438 34.476562 C 39.398438 37.65625 36.886719 39.398438 33.515625 39.398438 C 30.214844 39.398438 28.34375 37.746094 27.300781 35.695312 Z M 17.347656 33.933594 C 17.902344 34.929688 18.75 35.695312 19.964844 35.695312 C 21.128906 35.695312 21.800781 35.234375 21.800781 33.449219 L 21.800781 21.800781 L 25.464844 21.800781 L 25.464844 34.011719 C 25.464844 37.714844 23.316406 39.398438 20.179688 39.398438 C 17.347656 39.398438 15.300781 37.480469 14.464844 35.695312 Z M 17.347656 33.933594 "/>
</g>
</svg>
